<svg xmlns="http://www.w3.org/2000/svg" viewBox="0 0 24 24"  xmlns:v="https://vecta.io/nano"><path d="M20.068 23.226a1.5 1.5 0 0 1-.777-.217L3.222 13.284c-.343-.207-.584-.535-.68-.924a1.49 1.49 0 0 1 .172-1.135c.125-.208.301-.383.508-.508L19.291.992a1.49 1.49 0 0 1 .774-.217c.523 0 1.015.277 1.286.723a1.5 1.5 0 0 1 .217.777v19.452a1.49 1.49 0 0 1-.439 1.061c-.284.282-.66.438-1.061.438zm-.001-21.451a.5.5 0 0 0-.258.072L3.74 11.572a.51.51 0 0 0-.17.17c-.069.114-.089.249-.057.378s.113.239.227.308l16.069 9.726a.5.5 0 0 0 .613-.074c.094-.094.146-.22.146-.353V2.275c0-.091-.025-.181-.072-.259-.091-.151-.252-.241-.429-.241z"/></svg>