<svg xmlns="http://www.w3.org/2000/svg" viewBox="0 0 24 24"  xmlns:v="https://vecta.io/nano"><path d="M3.99 23.225c-.4 0-.777-.156-1.06-.438s-.44-.66-.44-1.06V2.273c0-.273.075-.541.216-.774.207-.343.535-.585.924-.68a1.53 1.53 0 0 1 .362-.044 1.49 1.49 0 0 1 .773.217l16.069 9.725c.207.125.383.301.508.508a1.49 1.49 0 0 1-.509 2.06L4.766 23.008a1.5 1.5 0 0 1-.774.216zm.001-21.451c-.041 0-.081.005-.121.015-.13.032-.239.113-.308.227a.5.5 0 0 0-.072.258v19.452a.5.5 0 0 0 .5.499c.091 0 .181-.025.258-.072l16.069-9.725c.115-.069.195-.179.227-.308s.011-.264-.058-.378a.51.51 0 0 0-.17-.17L4.248 1.846a.5.5 0 0 0-.257-.072z"/></svg>