<svg xmlns="http://www.w3.org/2000/svg" width="22" height="22" fill="#3e3f42"  xmlns:v="https://vecta.io/nano"><path d="M1.375 22.001C.617 22.001 0 21.384 0 20.626v-16.5c0-.758.617-1.375 1.375-1.375H2.75V1.376a.46.46 0 0 1 .458-.458.46.46 0 0 1 .458.458v1.375h2.75V1.376a.46.46 0 0 1 .458-.458.46.46 0 0 1 .458.458v1.375h2.75V1.376a.46.46 0 0 1 .458-.458.46.46 0 0 1 .458.458v1.375h2.75V1.376a.46.46 0 0 1 .458-.458.46.46 0 0 1 .458.458v1.375h2.75V1.376a.46.46 0 0 1 .458-.458.46.46 0 0 1 .458.458v1.375h1.375c.758 0 1.375.617 1.375 1.375v16.5c0 .758-.617 1.375-1.375 1.375H1.375zm0-18.333a.46.46 0 0 0-.458.458v16.5a.46.46 0 0 0 .458.458h18.333a.46.46 0 0 0 .458-.458v-16.5a.46.46 0 0 0-.458-.458h-1.375v.458a.46.46 0 0 1-.458.458.46.46 0 0 1-.458-.458v-.458h-2.75v.458a.46.46 0 0 1-.458.458.46.46 0 0 1-.458-.458v-.458H11v.458a.46.46 0 0 1-.458.458.46.46 0 0 1-.458-.458v-.458h-2.75v.458a.46.46 0 0 1-.458.458.46.46 0 0 1-.458-.458v-.458h-2.75v.458a.46.46 0 0 1-.458.458.46.46 0 0 1-.458-.458v-.458H1.375zm5.5 15.583l-2.75-.001c-.758 0-1.375-.617-1.375-1.375v-5.5c0-.758.617-1.375 1.375-1.375l5.958.001V8.708c0-.758.617-1.375 1.375-1.375h5.5c.758 0 1.375.617 1.375 1.375v9.167c0 .758-.617 1.375-1.375 1.375l-10.083.001zm6.875-.917v-2.75H11v2.75h2.75zm-3.667 0v-2.75h-2.75v2.75h2.75zm6.875-.001a.46.46 0 0 0 .458-.458v-2.291h-2.75v2.749h2.292zm-13.292-.458a.46.46 0 0 0 .458.458h2.292v-2.75h-2.75v2.292zm10.083-3.207v-2.75H11v2.75h2.75zm-3.667 0v-2.75h-2.75v2.75h2.75zm7.333-.001v-2.749h-2.75v2.749h2.75zm-11 0v-2.75h-2.29a.46.46 0 0 0-.458.458v2.292h2.75zm11-3.667V8.708a.46.46 0 0 0-.458-.458h-2.292V11h2.75zm-3.667 0V8.25h-2.292a.46.46 0 0 0-.458.458V11h2.75z"/></svg>