<svg xmlns="http://www.w3.org/2000/svg" width="19" height="20" fill="currentColor"  xmlns:v="https://vecta.io/nano"><path d="M17.625 19.865c-.101 0-.194-.043-.265-.121L9 10.518.641 19.744c-.07.078-.165.121-.265.121s-.194-.043-.265-.121c-.146-.161-.146-.424 0-.585l8.36-9.226L.11.707C-.036.545-.036.283.11.122.181.043.275 0 .375 0a.36.36 0 0 1 .266.121L9 9.347 17.36.122c.071-.078.165-.121.266-.121s.194.043.265.121c.146.161.146.424 0 .585L9.53 9.932l8.359 9.226c.146.161.146.424 0 .585-.07.079-.164.122-.265.122z"/></svg>