<svg xmlns="http://www.w3.org/2000/svg" width="10" height="11" fill="#3e3f42"  xmlns:v="https://vecta.io/nano"><path d="M5 10.034c-2.757 0-5-2.247-5-5.01S2.243.014 5 .014s5 2.247 5 5.01-2.243 5.01-5 5.01zM5 .432C2.473.432.417 2.492.417 5.024S2.473 9.617 5 9.617s4.583-2.06 4.583-4.593S7.527.432 5 .432zm2.083 6.889c-.056 0-.108-.022-.147-.061L5 5.32 3.064 7.26c-.04.04-.092.061-.148.061s-.108-.022-.147-.061-.061-.092-.061-.148a.21.21 0 0 1 .061-.148l1.936-1.94-1.936-1.94a.21.21 0 0 1 0-.296c.039-.04.092-.061.147-.061s.108.022.148.061L5 4.729l1.936-1.94c.04-.04.092-.061.147-.061s.108.022.147.061.061.092.061.148a.21.21 0 0 1-.061.148l-1.936 1.94 1.936 1.94c.04.04.061.092.061.148a.21.21 0 0 1-.061.148c-.039.04-.092.061-.147.061z"/></svg>