<svg xmlns="http://www.w3.org/2000/svg" width="16" height="16" fill="none"  xmlns:v="https://vecta.io/nano"><g clip-path="url(#A)" fill="#3e3f42"><path d="M1 16a1 1 0 0 1-1-1V2.333a1 1 0 0 1 1-1h8.667c.183 0 .333.149.333.333S9.85 2 9.667 2H1c-.184 0-.333.149-.333.333V15c0 .184.149.333.333.333h11.333c.184 0 .333-.149.333-.333V7.667c0-.184.149-.333.333-.333s.333.149.333.333V15a1 1 0 0 1-1 1H1zm4.25-4.915c-.089 0-.173-.035-.236-.097a.33.33 0 0 1-.071-.367l1.413-3.297c.014-.033.033-.063.057-.09.005-.007.01-.012.015-.017l5.886-5.885c.005-.006.011-.012.017-.017L13.547.099c.063-.065.147-.099.236-.099s.173.035.236.097l1.885 1.885c.13.13.13.341 0 .471l-7.119 7.12a.33.33 0 0 1-.105.071l-3.299 1.413a.35.35 0 0 1-.131.027zm.634-.968l2.081-.891-1.189-1.19-.892 2.081zm2.665-1.25l5.423-5.424-1.414-1.414-5.423 5.423L8.55 8.867zm5.895-5.895l.752-.753L13.782.805l-.753.752 1.415 1.415z" fill-opacity=".7"/></g><defs><clipPath id="A"><path fill="#fff" d="M0 0h16v16H0z"/></clipPath></defs></svg>