<svg xmlns="http://www.w3.org/2000/svg" width="18" height="18" fill="#3e3f42"  xmlns:v="https://vecta.io/nano"><path d="M1.5 15A1.5 1.5 0 0 1 0 13.5v-9A1.5 1.5 0 0 1 1.5 3h15A1.5 1.5 0 0 1 18 4.5v9a1.5 1.5 0 0 1-1.5 1.5h-15zm0-11.25a.75.75 0 0 0-.75.75v9a.75.75 0 0 0 .75.75h15a.75.75 0 0 0 .75-.75v-9a.75.75 0 0 0-.75-.75h-15zM9 10.875c-.072 0-.143-.021-.203-.06L2.421 6.69c-.084-.055-.142-.139-.163-.236s-.002-.199.052-.283c.07-.107.188-.171.315-.171.072 0 .142.021.203.06L9 10.053l6.172-3.993a.37.37 0 0 1 .203-.06c.128 0 .245.064.315.171a.37.37 0 0 1-.111.519l-6.375 4.125a.38.38 0 0 1-.204.06zm-6.375 1.5c-.134 0-.26-.073-.325-.189-.103-.179-.04-.409.139-.511l2.625-1.5a.38.38 0 0 1 .186-.05c.134 0 .26.072.325.189.103.179.04.409-.139.511l-2.625 1.5a.38.38 0 0 1-.186.05zm12.75 0c-.065 0-.13-.017-.186-.05l-2.625-1.5c-.087-.05-.149-.13-.176-.226s-.013-.198.036-.285c.067-.117.191-.189.325-.189a.38.38 0 0 1 .187.05l2.624 1.5a.37.37 0 0 1 .175.226c.026.096.014.198-.036.285-.067.116-.191.189-.325.189z" fill-opacity=".7"/></svg>