<svg xmlns="http://www.w3.org/2000/svg" width="17" height="14" stroke="#000" stroke-linecap="round" stroke-linejoin="round" fill="#fff" fill-rule="evenodd"  xmlns:v="https://vecta.io/nano"><path d="M13.859 10.092C15.56 8.574 16.5 6.854 16.5 6.854s-3-5.5-8-5.5a7.03 7.03 0 0 0-2.79.588l.77.771c.647-.236 1.331-.357 2.02-.359 2.12 0 3.879 1.168 5.168 2.457a13.13 13.13 0 0 1 1.66 2.043l-.195.288c-.335.48-.83 1.12-1.465 1.755l-.517.486.708.709zM11.797 8.03a3.5 3.5 0 0 0-4.474-4.474l.823.823a2.5 2.5 0 0 1 2.829 2.829l.822.822zM8.854 9.329l.822.822a3.5 3.5 0 0 1-4.474-4.474l.823.823a2.5 2.5 0 0 0 2.829 2.829zM3.85 4.324l-.518.487a13.13 13.13 0 0 0-1.66 2.043l.195.288c.335.48.83 1.12 1.465 1.755 1.289 1.289 3.049 2.457 5.168 2.457.716 0 1.39-.133 2.02-.36l.77.772a7.03 7.03 0 0 1-2.79.588c-5 0-8-5.5-8-5.5s.939-1.721 2.641-3.238l.708.709zm10.296 8.884l-12-12L2.854.5l12 12-.708.708z" fill-rule="nonzero" stroke="none" fill="#9e9fa0"/></svg>