<svg xmlns="http://www.w3.org/2000/svg" width="17" height="12" stroke="#000" stroke-linecap="round" stroke-linejoin="round" fill="#fff" fill-rule="evenodd"  xmlns:v="https://vecta.io/nano"><path d="M16.5 5.625S13.313 0 8 0-.5 5.625-.5 5.625 2.688 11.25 8 11.25s8.5-5.625 8.5-5.625zm-15.754 0A13.54 13.54 0 0 1 2.51 3.536C3.878 2.217 5.748 1.023 8 1.023s4.121 1.195 5.491 2.513a13.53 13.53 0 0 1 1.764 2.089l-.207.295c-.356.491-.882 1.146-1.556 1.795-1.37 1.318-3.24 2.513-5.491 2.513S3.879 9.033 2.509 7.714C1.85 7.077 1.259 6.377.745 5.625zM8 3.068c-1.467 0-2.656 1.145-2.656 2.557S6.533 8.182 8 8.182s2.656-1.145 2.656-2.557S9.467 3.068 8 3.068zM4.281 5.625c0-1.977 1.665-3.58 3.719-3.58s3.719 1.603 3.719 3.58S10.054 9.205 8 9.205 4.281 7.602 4.281 5.625z" stroke="none" fill="#9e9fa0" fill-rule="nonzero"/></svg>