<svg xmlns="http://www.w3.org/2000/svg" width="24" height="22"  stroke="none" stroke-linecap="round" stroke-linejoin="round" fill="currentColor" fill-rule="nonzero" fill-opacity=".5"><path d="M4.1662 21.2618a.918.918 0 0 1-.9167-.9167v-9.625c0-.253.2053-.4583.4583-.4583s.4584.2053.4584.4583v9.625h6.875c.253 0 .4583.2053.4583.4583s-.2053.4584-.4583.4584h-6.875zM.9579 10.719c-.1284 0-.2521-.054-.3383-.1494a.447.447 0 0 1-.1191-.33c.0055-.1229.0586-.2346.1484-.3181L10.5728.8612C10.8275.6283 11.1576.5 11.4995.5s.672.1283.9277.3621l9.9229 9.0604c.0908.0825.143.1952.1494.318s-.0366.2393-.12.33a.46.46 0 0 1-.3383.1495.458.458 0 0 1-.3089-.1201l-9.9229-9.0613c-.0862-.0779-.1953-.121-.3099-.121s-.2236.0431-.3089.121L1.2668 10.599a.458.458 0 0 1-.3089.12zm9.6253-2.2908c-.5052 0-.9167-.4116-.9167-.9167V5.6782c0-.5051.4115-.9167.9167-.9167h1.8332a.918.918 0 0 1 .9168.9167v1.8333a.918.918 0 0 1-.9168.9167h-1.8332zm0-.9167h1.8332V5.6782h-1.8332v1.8333zm5.9572 13.7502c-3.2854 0-5.9584-2.673-5.9584-5.9584s2.673-5.9583 5.9584-5.9583 5.9583 2.673 5.9583 5.9583-2.673 5.9584-5.9583 5.9584zm0-11c-2.7803 0-5.0417 2.2614-5.0417 5.0416s2.2614 5.0417 5.0417 5.0417 5.0417-2.2614 5.0417-5.0417-2.2615-5.0416-5.0417-5.0416zm-.6869 2.7501c.3797 0 .6875-.3078.6875-.6875s-.3078-.6875-.6875-.6875-.6875.3078-.6875.6875.3078.6875.6875.6875zm-.6881 5.5c-.253 0-.4584-.2053-.4584-.4583s.2054-.4583.4584-.4583h.9175v-2.75h-.9166a.459.459 0 0 1-.4585-.4584c0-.253.2055-.4583.4585-.4583h.9166c.506 0 .9167.4107.9167.9167v2.75h.9158c.253 0 .4583.2053.4583.4583s-.2053.4583-.4583.4583h-2.75z"/></svg>