<svg xmlns="http://www.w3.org/2000/svg" width="15" height="15" fill="none"  xmlns:v="https://vecta.io/nano"><g clip-path="url(#A)" stroke="#3e3f42" stroke-linejoin="round"><path d="M6.563 12.736h6.875v-1.25a1.25 1.25 0 0 0-1.25-1.25H6.875c-.083 0-.162.033-.221.091a.31.31 0 0 0-.092.221v2.188zm-2.188 0a1.25 1.25 0 1 0 0-2.5 1.25 1.25 0 1 0 0 2.5z"/><g stroke-linecap="round"><path d="M13.438 7.736V4.625m-11.875 0v3.113m13.125-2.189L7.871.511A.62.62 0 0 0 7.5.388.63.63 0 0 0 7.128.51L.313 5.549m1.25 4.687v4.375m0-1.875h11.875v1.875"/></g></g><defs><clipPath id="A"><path fill="#fff" d="M0 0h15v15H0z"/></clipPath></defs></svg>