<svg xmlns="http://www.w3.org/2000/svg" width="20" height="20" fill="#000"  xmlns:v="https://vecta.io/nano"><path d="M4.583 20C3.434 20 2.5 19.065 2.5 17.917V9.583c0-1.149.934-2.083 2.083-2.083H5V5a5.01 5.01 0 0 1 5-5 5.01 5.01 0 0 1 5 5v2.5h.417c1.148 0 2.083.934 2.083 2.083v8.333c0 1.148-.935 2.083-2.083 2.083H4.583zm0-11.667a1.25 1.25 0 0 0-1.25 1.25v8.333a1.25 1.25 0 0 0 1.25 1.25h10.833a1.25 1.25 0 0 0 1.25-1.25V9.583a1.25 1.25 0 0 0-1.25-1.25H4.583zm9.583-.833V5c0-2.297-1.869-4.167-4.167-4.167S5.833 2.703 5.833 5v2.5h8.333zM10 15.208a1.46 1.46 0 0 1-1.458-1.458A1.46 1.46 0 0 1 10 12.292a1.46 1.46 0 0 1 1.458 1.458A1.46 1.46 0 0 1 10 15.208zm0-2.083c-.345 0-.625.28-.625.625s.28.625.625.625.625-.28.625-.625-.28-.625-.625-.625z"/></svg>