<svg xmlns="http://www.w3.org/2000/svg" width="18" height="18" fill="none"  xmlns:v="https://vecta.io/nano"><g clip-path="url(#A)" fill="#3e3f42"><path d="M4.493 13.5a4.47 4.47 0 0 1-3.181-1.321A4.47 4.47 0 0 1-.003 8.996c.002-2.479 2.02-4.496 4.5-4.496a4.55 4.55 0 0 1 4.243 3h5.51c.101 0 .194.039.265.109l1.125 1.125c.146.146.146.384 0 .53l-1.125 1.125c-.071.071-.165.11-.265.11h-.97l-.641.64a.37.37 0 0 1-.265.11.37.37 0 0 1-.265-.11l-.64-.64h-.439l-.641.64a.37.37 0 0 1-.265.11c-.101 0-.194-.039-.266-.11l-.64-.64h-.481a4.55 4.55 0 0 1-4.243 3h-.003zm.004-8.25c-1.001 0-1.942.389-2.65 1.096a3.73 3.73 0 0 0-1.1 2.651c-.001 1.001.388 1.943 1.096 2.653s1.649 1.1 2.651 1.1a3.77 3.77 0 0 0 3.611-2.727c.045-.16.193-.273.36-.273h.91c.101 0 .194.039.266.11l.485.484.485-.484c.071-.071.166-.11.265-.11h.75a.37.37 0 0 1 .265.11l.485.484.485-.484c.071-.071.166-.11.265-.11h.97l.75-.75-.75-.75H8.465c-.167 0-.316-.113-.361-.273C7.65 6.373 6.167 5.252 4.5 5.25l-.003-.187v.188zM3 10.502a1.5 1.5 0 1 1 0-3 1.5 1.5 0 1 1 0 3zm0-2.25a.75.75 0 1 0 0 1.5.75.75 0 1 0 0-1.5zM8.625 18c-.62 0-1.125-.505-1.125-1.125v-2.233c0-.207.168-.375.375-.375s.375.168.375.375v2.233c0 .207.168.375.375.375h8.25c.207 0 .375-.168.375-.375V1.125c0-.207-.168-.375-.375-.375h-8.25c-.207 0-.375.168-.375.375v3c0 .207-.168.375-.375.375S7.5 4.332 7.5 4.125v-3C7.5.505 8.005 0 8.625 0h8.25C17.495 0 18 .505 18 1.125v15.75c0 .62-.505 1.125-1.125 1.125h-8.25z" fill-opacity=".7"/></g><defs><clipPath id="A"><path fill="#fff" d="M0 0h18v18H0z"/></clipPath></defs></svg>