<?xml version="1.0" encoding="utf-8"?>
<!-- Generator: Adobe Illustrator 25.4.1, SVG Export Plug-In . SVG Version: 6.00 Build 0)  -->
<svg version="1.1" id="Layer_1" xmlns="http://www.w3.org/2000/svg" xmlns:xlink="http://www.w3.org/1999/xlink" x="0px" y="0px"
	 viewBox="0 0 559 121" style="enable-background:new 0 0 559 121;" xml:space="preserve">
<style type="text/css">
	.st0{display:none;}
	.st1{display:inline;}
	.st2{display:inline;clip-path:url(#SVGID_00000016782827104168077180000001557288649010251180_);}
	.st3{fill-rule:evenodd;clip-rule:evenodd;fill:#2e3192;}
	.st4{fill-rule:evenodd;clip-rule:evenodd;fill:#FA4B57;}
	.st5{fill:#FF00FF;}
	.st6{fill:#FFFFFF;}
	.st7{fill:#FFFFFF;}
	.st8{fill:#00FFFF;}
</style>
<g class="st0">
	<defs>
		<rect id="SVGID_1_" y="5.15" width="140.4" height="100.7"/>
	</defs>
	<clipPath id="SVGID_00000109721697920905371750000015154083262151457961_" class="st1">
		<use xlink:href="#SVGID_1_"  style="overflow:visible;"/>
	</clipPath>
	<g style="display:inline;clip-path:url(#SVGID_00000109721697920905371750000015154083262151457961_);">
		<path class="st3" d="M21.51,5.15l21.51,21.48L21.51,48.1L0,26.63L21.51,5.15z"/>
		<path class="st4" d="M70.2,5.15l21.51,21.48L70.2,48.1L48.69,26.63L70.2,5.15z"/>
		<path class="st4" d="M119.51,47.4l-27.9,27.86h0.1L70.2,96.73l-7.41-7.4l-0.2,0.1L42,68.77l-0.81-0.81L20.7,47.29L42,25.82
			l20.59,20.67l0.81,0.81l6.7,6.69l28-27.96L119.51,47.4z"/>
		<path class="st3" d="M118.9,5.15l21.51,21.48L118.9,48.1L97.39,26.63L118.9,5.15z"/>
	</g>
</g>
<path class="st5" d="M45.64,41.3l29.72-19.59L63.27,7.76l-31.7,26.77c-0.71,17.03-1.42,34.06-2.13,51.09
	c5.4-0.23,10.8-0.47,16.2-0.7C45.64,70.38,45.64,55.84,45.64,41.3z"/>
<path class="st6" d="M70.1,65.87c4.27-7.56,6.58-13.55,6.9-17.97c-3.66,1.5-7.33,4.89-10.99,10.15c-0.28,0.24-0.46,0.67-0.53,1.3
	c-0.07,0.63-0.2,1.07-0.39,1.3c-0.47,0.61-1.15,0.92-2.04,0.92c-1.55,0-3.43-0.75-5.64-2.25c-0.94-0.52-1.88-1.03-2.82-1.55
	c-1.13-0.61-1.72-1.15-1.76-1.62c-0.09-1.08,1.08-3.17,3.52-6.27c2.63-3.29,5.54-6.08,8.74-8.38c3.8-2.82,7.19-4.23,10.15-4.23
	c1.13,0,2.2,0.36,3.21,1.09c1.01,0.73,1.98,1.47,2.92,2.22c3.8,2.63,6.22,5.12,7.26,7.47c0.19,0.47,0.28,1.08,0.28,1.83
	c0,3.29-1.74,8.64-5.21,16.06c-3.28,6.97-6.79,13.04-10.53,18.19l0.15-0.01c1.44-0.47,3.39-1.15,5.87-2.05
	c0.28-0.14,0.78-0.47,1.48-0.99c0.47-0.33,0.92-0.47,1.34-0.42c0.98,0.12,2.3,1.14,3.96,3.03l6.19-0.21L90.75,39.1L75.36,21.35
	L45.64,40.94v44.12l12.14-0.41c0.2-0.29,0.41-0.58,0.62-0.88C63.43,76.62,67.32,70.66,70.1,65.87z"/>
<path class="st7" d="M82,81.37c-0.42-0.05-0.87,0.09-1.34,0.42c-0.7,0.52-1.2,0.85-1.48,0.99c-2.48,0.9-4.43,1.58-5.87,2.05
	l12.64-0.43C84.3,82.5,82.98,81.49,82,81.37z"/>
<path class="st8" d="M52.17,93.69c0-0.32,2-3.34,6-9.04c-4.17,0.09-8.35,0.19-12.52,0.28c-0.04,3.75-0.07,7.51-0.11,11.26h8.36
	c-0.08-0.06-0.17-0.11-0.25-0.17C52.71,95.35,52.21,94.58,52.17,93.69z"/>
<path class="st8" d="M90.56,90.44c0.14,1.36-0.73,2.32-2.61,2.89c-0.61-0.09-1.5-0.07-2.68,0.07c-0.85,0-3.5,0.68-7.96,2.04
	c-0.88,0.25-1.71,0.49-2.52,0.73h34.86l-1.41-53.55L84.3,15.86c-3.02,1.88-6.04,3.77-9.07,5.65c5.17,5.87,10.33,11.74,15.5,17.61
	c0.47,14.8,0.94,29.59,1.41,44.39c-2.06,0.07-4.12,0.14-6.18,0.22c0.44,0.47,0.91,1,1.4,1.61C89.4,87.85,90.47,89.55,90.56,90.44z"
	/>
<g>
	<path class="st6" d="M139.24,44.69h1.17v-6.41c0-1.72,0.04-3.07,0.14-4.04c0.09-0.98,0.34-1.82,0.76-2.52
		c0.42-0.73,1.02-1.32,1.8-1.78c0.78-0.46,1.65-0.68,2.62-0.68c1.35,0,2.58,0.51,3.67,1.52c0.73,0.68,1.19,1.5,1.39,2.48
		s0.29,2.36,0.29,4.16v7.27h3.91c1.51,0,2.66,0.36,3.46,1.07c0.79,0.72,1.19,1.63,1.19,2.75c0,1.43-0.57,2.44-1.7,3.01
		c-1.13,0.57-2.75,0.86-4.86,0.86h-1.99V72c0,1.67,0.06,2.95,0.18,3.85s0.43,1.63,0.94,2.19c0.51,0.56,1.33,0.84,2.48,0.84
		c0.62,0,1.47-0.11,2.54-0.33c1.07-0.22,1.9-0.33,2.5-0.33c0.86,0,1.63,0.35,2.32,1.04c0.69,0.69,1.04,1.54,1.04,2.56
		c0,1.72-0.94,3.03-2.81,3.95s-4.57,1.37-8.09,1.37c-3.33,0-5.86-0.56-7.58-1.68s-2.85-2.67-3.38-4.65c-0.53-1.98-0.8-4.62-0.8-7.93
		V52.39h-1.41c-1.54,0-2.71-0.36-3.52-1.09c-0.81-0.73-1.21-1.65-1.21-2.77c0-1.12,0.42-2.04,1.27-2.75
		C136.4,45.05,137.63,44.69,139.24,44.69z"/>
	<path class="st6" d="M173.62,50.4l6.95,23.83l6.33-22.15c0.68-2.32,1.18-3.9,1.5-4.75c0.33-0.85,0.94-1.65,1.84-2.42
		c0.9-0.77,2.13-1.15,3.69-1.15c1.59,0,2.83,0.38,3.73,1.15c0.9,0.77,1.53,1.6,1.89,2.5c0.36,0.9,0.87,2.46,1.52,4.67l6.33,22.15
		l7.03-23.83c0.47-1.72,0.85-2.96,1.13-3.73c0.29-0.77,0.77-1.45,1.45-2.03c0.68-0.59,1.65-0.88,2.93-0.88
		c1.28,0,2.38,0.44,3.32,1.33c0.94,0.89,1.41,1.93,1.41,3.12c0,1.09-0.4,2.75-1.21,4.96l-8.71,25.55c-0.76,2.16-1.34,3.72-1.76,4.69
		c-0.42,0.96-1.07,1.82-1.97,2.58s-2.13,1.13-3.69,1.13c-1.62,0-2.88-0.4-3.81-1.21c-0.92-0.81-1.61-1.8-2.05-2.97
		c-0.44-1.17-0.92-2.7-1.45-4.57l-6.09-20.78l-5.9,20.78c-0.78,2.89-1.63,5.07-2.54,6.54c-0.91,1.47-2.51,2.21-4.8,2.21
		c-1.17,0-2.17-0.23-2.99-0.68s-1.5-1.11-2.05-1.95c-0.55-0.85-1.03-1.85-1.45-3.01c-0.42-1.16-0.74-2.08-0.98-2.75l-8.63-25.55
		c-0.86-2.4-1.29-4.05-1.29-4.96c0-1.15,0.46-2.17,1.37-3.09c0.91-0.91,2.03-1.37,3.36-1.37c1.77,0,2.97,0.5,3.59,1.5
		C172.25,46.26,172.91,47.98,173.62,50.4z"/>
	<path class="st6" d="M270.88,65.44c0,3.18-0.5,6.11-1.48,8.79c-0.99,2.68-2.42,4.99-4.3,6.91c-1.88,1.93-4.12,3.41-6.72,4.43
		c-2.6,1.03-5.53,1.54-8.79,1.54c-3.23,0-6.13-0.52-8.71-1.56s-4.81-2.53-6.7-4.47c-1.89-1.94-3.32-4.23-4.3-6.88
		c-0.98-2.64-1.46-5.57-1.46-8.77c0-3.23,0.49-6.18,1.48-8.87c0.99-2.68,2.41-4.97,4.26-6.88c1.85-1.9,4.09-3.37,6.72-4.39
		c2.63-1.03,5.53-1.54,8.71-1.54c3.23,0,6.16,0.52,8.79,1.56c2.63,1.04,4.88,2.53,6.76,4.45c1.88,1.93,3.3,4.22,4.28,6.88
		S270.88,62.23,270.88,65.44z M260.18,65.44c0-4.35-0.96-7.73-2.87-10.16s-4.49-3.63-7.71-3.63c-2.08,0-3.92,0.54-5.51,1.62
		c-1.59,1.08-2.81,2.68-3.67,4.79s-1.29,4.57-1.29,7.38c0,2.79,0.42,5.22,1.27,7.3c0.85,2.08,2.06,3.68,3.63,4.79
		c1.58,1.11,3.43,1.66,5.57,1.66c3.23,0,5.8-1.22,7.71-3.65C259.22,73.1,260.18,69.73,260.18,65.44z"/>
	<path class="st6" d="M289.87,71.73v8.91c0,2.16-0.51,3.78-1.52,4.86s-2.3,1.62-3.87,1.62c-1.54,0-2.8-0.55-3.79-1.64
		c-0.99-1.09-1.48-2.71-1.48-4.84V50.94c0-4.79,1.73-7.19,5.2-7.19c1.77,0,3.05,0.56,3.83,1.68c0.78,1.12,1.21,2.77,1.29,4.96
		c1.28-2.19,2.58-3.84,3.93-4.96c1.34-1.12,3.13-1.68,5.37-1.68c2.24,0,4.41,0.56,6.52,1.68c2.11,1.12,3.16,2.6,3.16,4.45
		c0,1.3-0.45,2.38-1.35,3.22c-0.9,0.85-1.87,1.27-2.91,1.27c-0.39,0-1.33-0.24-2.83-0.72c-1.5-0.48-2.82-0.72-3.96-0.72
		c-1.56,0-2.84,0.41-3.83,1.23c-0.99,0.82-1.76,2.04-2.3,3.65c-0.55,1.62-0.92,3.54-1.13,5.76
		C289.97,65.81,289.87,68.52,289.87,71.73z"/>
	<path class="st6" d="M342.09,68.05h-20.86c0.03,2.42,0.51,4.56,1.46,6.41c0.95,1.85,2.21,3.24,3.79,4.18
		c1.58,0.94,3.31,1.41,5.21,1.41c1.28,0,2.44-0.15,3.5-0.45c1.05-0.3,2.08-0.77,3.07-1.41c0.99-0.64,1.9-1.32,2.73-2.05
		c0.83-0.73,1.91-1.72,3.24-2.97c0.55-0.47,1.33-0.7,2.34-0.7c1.09,0,1.98,0.3,2.66,0.9c0.68,0.6,1.02,1.45,1.02,2.54
		c0,0.96-0.38,2.09-1.13,3.38c-0.76,1.29-1.89,2.53-3.42,3.71c-1.52,1.19-3.44,2.17-5.74,2.95s-4.96,1.17-7.95,1.17
		c-6.85,0-12.17-1.95-15.98-5.86c-3.8-3.91-5.7-9.21-5.7-15.9c0-3.15,0.47-6.07,1.41-8.77s2.3-5.01,4.1-6.93
		c1.8-1.93,4.01-3.4,6.64-4.43c2.63-1.03,5.55-1.54,8.75-1.54c4.17,0,7.74,0.88,10.72,2.64c2.98,1.76,5.21,4.03,6.7,6.82
		c1.48,2.79,2.23,5.62,2.23,8.52c0,2.68-0.77,4.42-2.3,5.21C347.04,67.66,344.88,68.05,342.09,68.05z M321.23,62h19.34
		c-0.26-3.65-1.24-6.37-2.95-8.18c-1.71-1.81-3.95-2.71-6.74-2.71c-2.66,0-4.84,0.92-6.54,2.75C322.63,55.69,321.6,58.41,321.23,62z
		"/>
	<path class="st6" d="M369.55,49.66v1.29c1.88-2.47,3.93-4.29,6.15-5.45c2.23-1.16,4.79-1.74,7.68-1.74c2.81,0,5.33,0.61,7.54,1.84
		c2.21,1.22,3.87,2.96,4.96,5.2c0.7,1.3,1.16,2.71,1.37,4.22c0.21,1.51,0.31,3.44,0.31,5.78v19.84c0,2.14-0.49,3.75-1.46,4.84
		s-2.25,1.64-3.81,1.64c-1.59,0-2.88-0.56-3.87-1.68c-0.99-1.12-1.48-2.72-1.48-4.8V62.86c0-3.52-0.49-6.2-1.46-8.07
		c-0.98-1.86-2.92-2.79-5.84-2.79c-1.9,0-3.63,0.57-5.2,1.7s-2.71,2.69-3.44,4.67c-0.52,1.59-0.78,4.56-0.78,8.91v13.36
		c0,2.16-0.5,3.78-1.5,4.86c-1,1.08-2.3,1.62-3.89,1.62c-1.54,0-2.8-0.56-3.79-1.68c-0.99-1.12-1.48-2.72-1.48-4.8V49.81
		c0-2.03,0.44-3.55,1.33-4.55c0.88-1,2.1-1.5,3.63-1.5c0.94,0,1.78,0.22,2.54,0.66c0.75,0.44,1.36,1.11,1.82,1.99
		C369.33,47.3,369.55,48.38,369.55,49.66z"/>
	<path class="st6" d="M408.77,44.69h1.17v-6.41c0-1.72,0.04-3.07,0.14-4.04c0.09-0.98,0.34-1.82,0.76-2.52
		c0.42-0.73,1.02-1.32,1.8-1.78c0.78-0.46,1.65-0.68,2.62-0.68c1.35,0,2.58,0.51,3.67,1.52c0.73,0.68,1.19,1.5,1.39,2.48
		s0.29,2.36,0.29,4.16v7.27h3.91c1.51,0,2.66,0.36,3.46,1.07c0.79,0.72,1.19,1.63,1.19,2.75c0,1.43-0.57,2.44-1.7,3.01
		c-1.13,0.57-2.75,0.86-4.86,0.86h-1.99V72c0,1.67,0.06,2.95,0.18,3.85s0.43,1.63,0.94,2.19c0.51,0.56,1.33,0.84,2.48,0.84
		c0.62,0,1.47-0.11,2.54-0.33c1.07-0.22,1.9-0.33,2.5-0.33c0.86,0,1.63,0.35,2.32,1.04c0.69,0.69,1.04,1.54,1.04,2.56
		c0,1.72-0.94,3.03-2.81,3.95s-4.57,1.37-8.09,1.37c-3.33,0-5.86-0.56-7.58-1.68s-2.85-2.67-3.38-4.65c-0.53-1.98-0.8-4.62-0.8-7.93
		V52.39h-1.41c-1.54,0-2.71-0.36-3.52-1.09c-0.81-0.73-1.21-1.65-1.21-2.77c0-1.12,0.42-2.04,1.27-2.75
		C405.93,45.05,407.16,44.69,408.77,44.69z"/>
	<path class="st6" d="M463.46,81.1c-2.58,2.01-5.07,3.51-7.48,4.51c-2.41,1-5.11,1.5-8.11,1.5c-2.73,0-5.14-0.54-7.21-1.62
		s-3.67-2.54-4.79-4.39c-1.12-1.85-1.68-3.85-1.68-6.02c0-2.92,0.92-5.4,2.77-7.46c1.85-2.06,4.39-3.44,7.62-4.14
		c0.68-0.16,2.36-0.51,5.04-1.05c2.68-0.55,4.98-1.05,6.89-1.5c1.91-0.46,3.99-1.01,6.23-1.66c-0.13-2.81-0.7-4.88-1.7-6.19
		c-1-1.31-3.08-1.97-6.23-1.97c-2.71,0-4.75,0.38-6.11,1.13c-1.37,0.76-2.54,1.89-3.52,3.4c-0.98,1.51-1.67,2.51-2.07,2.99
		c-0.4,0.48-1.27,0.72-2.6,0.72c-1.2,0-2.23-0.38-3.11-1.15c-0.87-0.77-1.31-1.75-1.31-2.95c0-1.88,0.66-3.7,1.99-5.47
		c1.33-1.77,3.4-3.23,6.21-4.38c2.81-1.15,6.31-1.72,10.51-1.72c4.69,0,8.37,0.55,11.05,1.66c2.68,1.11,4.58,2.86,5.68,5.25
		c1.11,2.4,1.66,5.57,1.66,9.53c0,2.5-0.01,4.62-0.02,6.37c-0.01,1.75-0.03,3.69-0.06,5.82c0,2.01,0.33,4.1,1,6.27
		c0.66,2.17,1,3.57,1,4.2c0,1.09-0.51,2.09-1.54,2.99c-1.03,0.9-2.19,1.35-3.5,1.35c-1.09,0-2.17-0.51-3.24-1.54
		C465.79,84.54,464.66,83.05,463.46,81.1z M462.76,65.67c-1.56,0.57-3.83,1.18-6.82,1.82c-2.98,0.64-5.05,1.11-6.19,1.41
		c-1.15,0.3-2.24,0.89-3.28,1.76c-1.04,0.87-1.56,2.09-1.56,3.65c0,1.62,0.61,2.99,1.84,4.12c1.22,1.13,2.83,1.7,4.8,1.7
		c2.11,0,4.06-0.46,5.84-1.39c1.78-0.92,3.09-2.12,3.93-3.57c0.96-1.61,1.45-4.27,1.45-7.97V65.67z"/>
	<path class="st6" d="M484.05,80.63V34.38c0-2.13,0.47-3.75,1.43-4.84c0.95-1.09,2.23-1.64,3.85-1.64c1.61,0,2.92,0.54,3.91,1.62
		c0.99,1.08,1.48,2.7,1.48,4.86v46.25c0,2.16-0.5,3.78-1.5,4.86c-1,1.08-2.3,1.62-3.89,1.62c-1.56,0-2.83-0.56-3.81-1.68
		S484.05,82.72,484.05,80.63z"/>
	<path class="st6" d="M540.06,73.17c0,2.94-0.72,5.46-2.15,7.56c-1.43,2.1-3.55,3.69-6.35,4.77c-2.8,1.08-6.21,1.62-10.21,1.62
		c-3.83,0-7.11-0.59-9.84-1.76s-4.75-2.64-6.05-4.39c-1.3-1.76-1.95-3.52-1.95-5.29c0-1.17,0.42-2.17,1.25-3.01
		c0.83-0.83,1.89-1.25,3.16-1.25c1.12,0,1.98,0.27,2.58,0.82c0.6,0.55,1.17,1.32,1.72,2.3c1.09,1.9,2.4,3.32,3.93,4.26
		s3.6,1.41,6.23,1.41c2.13,0,3.89-0.47,5.25-1.43c1.37-0.95,2.05-2.04,2.05-3.26c0-1.88-0.71-3.24-2.13-4.1
		c-1.42-0.86-3.76-1.68-7.01-2.46c-3.67-0.91-6.66-1.87-8.96-2.87c-2.3-1-4.15-2.32-5.53-3.96c-1.38-1.64-2.07-3.66-2.07-6.05
		c0-2.13,0.64-4.15,1.91-6.05c1.28-1.9,3.16-3.42,5.64-4.55c2.49-1.13,5.49-1.7,9-1.7c2.76,0,5.24,0.29,7.44,0.86
		c2.2,0.57,4.04,1.34,5.51,2.3c1.47,0.96,2.59,2.03,3.36,3.2c0.77,1.17,1.15,2.32,1.15,3.44c0,1.22-0.41,2.23-1.23,3.01
		s-1.99,1.17-3.5,1.17c-1.09,0-2.03-0.31-2.79-0.94c-0.77-0.62-1.65-1.56-2.64-2.81c-0.81-1.04-1.76-1.88-2.85-2.5
		s-2.58-0.94-4.45-0.94c-1.93,0-3.53,0.41-4.8,1.23c-1.28,0.82-1.91,1.84-1.91,3.07c0,1.12,0.47,2.04,1.41,2.75
		c0.94,0.72,2.2,1.31,3.79,1.78c1.59,0.47,3.78,1.04,6.56,1.72c3.31,0.81,6.01,1.77,8.11,2.89c2.1,1.12,3.68,2.44,4.77,3.96
		C539.52,69.48,540.06,71.22,540.06,73.17z"/>
</g>
</svg>
