<svg xmlns="http://www.w3.org/2000/svg" width="15" height="15" fill="none"  xmlns:v="https://vecta.io/nano"><g clip-path="url(#A)" stroke="#3e3f42" stroke-linecap="round" stroke-linejoin="round"><path d="M.313 5l4.278-3.707c.114-.099.259-.153.409-.153a.62.62 0 0 1 .409.153L9.688 5M6.875.938h1.25c.083 0 .162.033.221.092s.092.138.092.221V2.5m6.25 3.438L11.38 9.246c-.117.117-.276.183-.442.183s-.325-.066-.442-.183L8.879 7.629c-.117-.117-.276-.183-.442-.183s-.325.066-.442.183l-6.433 6.433" stroke-opacity=".7"/><path d="M14.688 8.438v-2.5h-2.5m-7.5 3.124H2.5c-.083 0-.162-.033-.221-.092s-.092-.138-.092-.221V5.116M7.813 6.25V5.116" stroke-opacity=".7"/></g><defs><clipPath id="A"><path fill="#fff" d="M0 0h15v15H0z"/></clipPath></defs></svg>