<svg xmlns="http://www.w3.org/2000/svg" width="15" height="15" fill="none"  xmlns:v="https://vecta.io/nano"><path d="M14.674 10.271c-.023-.13-.08-.241-.171-.332a.58.58 0 0 0-.703-.127 5.24 5.24 0 0 1-2.228.498c-.964 0-1.853-.238-2.668-.713S7.445 8.476 6.97 7.662s-.713-1.703-.713-2.668a5.25 5.25 0 0 1 .445-2.135c.296-.674.725-1.265 1.285-1.774a.57.57 0 0 0 .147-.704c-.111-.267-.309-.394-.596-.381A7.47 7.47 0 0 0 4.703.67a7.47 7.47 0 0 0-2.301 1.607c-.642.664-1.15 1.451-1.524 2.36a7.43 7.43 0 0 0-.562 2.858 7.3 7.3 0 0 0 .596 2.912c.397.925.932 1.723 1.603 2.394s1.469 1.205 2.394 1.602S6.804 15 7.82 15c1.459 0 2.806-.396 4.04-1.187s2.158-1.848 2.77-3.171c.052-.117.067-.241.044-.371zm-4.182 2.877a6.15 6.15 0 0 1-2.673.601 6.08 6.08 0 0 1-2.428-.498c-.772-.332-1.436-.777-1.993-1.334s-1.001-1.221-1.334-1.993a6.08 6.08 0 0 1-.498-2.428c0-1.401.415-2.651 1.246-3.752a6.12 6.12 0 0 1 3.21-2.238 6.42 6.42 0 0 0-1.016 3.488c0 1.186.293 2.283.879 3.293s1.384 1.807 2.394 2.394 2.107.879 3.293.879a6.52 6.52 0 0 0 1.075-.088c-.593.717-1.311 1.275-2.155 1.675z" fill="#3e3f42" fill-opacity=".7"/></svg>