<svg xmlns="http://www.w3.org/2000/svg" xmlns:xlink="http://www.w3.org/1999/xlink" width="16" height="20" fill="none" xmlns:v="https://vecta.io/nano"><g fill="#3e3f42"><path d="M1.333 20a1.25 1.25 0 0 1-1.25-1.25V2.917a1.25 1.25 0 0 1 1.25-1.25H3c.23 0 .417.187.417.417S3.23 2.5 3 2.5H1.333c-.23 0-.417.187-.417.417V18.75c0 .23.187.417.417.417h13.333c.23 0 .417-.187.417-.417V2.917c0-.23-.187-.417-.417-.417H13c-.23 0-.417-.187-.417-.417s.187-.417.417-.417h1.667a1.25 1.25 0 0 1 1.25 1.25V18.75a1.25 1.25 0 0 1-1.25 1.25H1.333zm1.25-1.667c-.459 0-.833-.373-.833-.833V4.167c0-.459.374-.833.833-.833H4.25v-1.25c0-.23.187-.417.417-.417h1.292a2.08 2.08 0 0 1 4.083 0h1.292c.23 0 .417.187.417.417v1.25h1.667c.46 0 .833.374.833.833v10.417a.41.41 0 0 1-.137.307L10.8 18.203c-.074.082-.183.13-.3.13H2.583zm0-.833h7.5V15c0-.46.373-.833.833-.833h2.5v-10H11.75v.417c0 .23-.187.417-.417.417H4.667c-.23 0-.417-.187-.417-.417v-.417H2.583V17.5zm8.333-.592L12.825 15h-1.908v1.908zm0-12.742V2.5h-1.25c-.23 0-.417-.187-.417-.417a1.25 1.25 0 1 0-2.5 0c0 .23-.187.417-.417.417h-1.25v1.667h5.833z"/><use xlink:href="#B"/><use xlink:href="#B" y="2.5"/><path d="M4.667 12.499c-.23 0-.417-.187-.417-.417s.187-.417.417-.417h3.75c.23 0 .417.187.417.417s-.187.417-.417.417h-3.75z"/></g><defs ><path id="B" d="M4.667 7.499c-.23 0-.417-.187-.417-.417s.187-.417.417-.417h6.667c.23 0 .417.187.417.417s-.187.417-.417.417H4.667z"/></defs></svg>