<svg xmlns="http://www.w3.org/2000/svg" xmlns:xlink="http://www.w3.org/1999/xlink" width="22" height="22" fill="currentColor" xmlns:v="https://vecta.io/nano"><g fill="currentColor"><path d="M3.667 22c-.758 0-1.375-.617-1.375-1.375V3.208c0-.758.617-1.375 1.375-1.375H5.5a.46.46 0 0 1 .458.458.46.46 0 0 1-.458.458H3.667a.46.46 0 0 0-.458.458v17.417a.46.46 0 0 0 .458.458h14.667a.46.46 0 0 0 .458-.458V3.208a.46.46 0 0 0-.458-.458H16.5a.46.46 0 0 1-.458-.458.46.46 0 0 1 .458-.458h1.833c.758 0 1.375.617 1.375 1.375v17.417c0 .758-.617 1.375-1.375 1.375H3.667zm1.375-1.833a.92.92 0 0 1-.917-.917V4.583a.92.92 0 0 1 .917-.917h1.833V2.292a.46.46 0 0 1 .458-.458h1.421a2.29 2.29 0 0 1 4.492 0h1.421a.46.46 0 0 1 .458.458v1.375h1.833a.92.92 0 0 1 .917.917v11.458a.45.45 0 0 1-.15.337l-3.645 3.645c-.082.09-.201.143-.33.143H5.042zm0-.917h8.25V16.5a.92.92 0 0 1 .917-.917h2.75v-11h-1.833v.458a.46.46 0 0 1-.458.458H7.333a.46.46 0 0 1-.458-.458v-.458H5.042V19.25zm9.167-.651l2.099-2.099h-2.099v2.099zm0-14.016V2.75h-1.375a.46.46 0 0 1-.458-.458c0-.758-.617-1.375-1.375-1.375s-1.375.617-1.375 1.375a.46.46 0 0 1-.458.458H7.792v1.833h6.417z" fill-opacity=".5"/><use xlink:href="#B" fill-opacity=".5"/><use xlink:href="#B" y="2.75" fill-opacity=".5"/><path d="M7.333 13.749a.46.46 0 0 1-.458-.458.46.46 0 0 1 .458-.458h4.125a.46.46 0 0 1 .458.458.46.46 0 0 1-.458.458H7.333z" fill-opacity=".5"/></g><defs ><path id="B" d="M7.333 8.249a.46.46 0 0 1-.458-.458.46.46 0 0 1 .458-.458h7.333a.46.46 0 0 1 .458.458.46.46 0 0 1-.458.458H7.333z"/></defs></svg>