<svg xmlns="http://www.w3.org/2000/svg" width="20" height="20" fill="#3e3f42"  xmlns:v="https://vecta.io/nano"><path d="M9.583 20a1.25 1.25 0 0 1-1.25-1.25v-1.54c-.663-.157-1.312-.38-1.932-.666l-1.116 1.117a1.24 1.24 0 0 1-.884.366 1.24 1.24 0 0 1-.884-.366l-1.182-1.177a1.25 1.25 0 0 1-.001-1.768l1.117-1.117c-.285-.619-.508-1.267-.666-1.932H1.25A1.25 1.25 0 0 1 0 10.417v-.833a1.25 1.25 0 0 1 1.25-1.25h1.54a10.28 10.28 0 0 1 .666-1.932L2.339 5.286a1.25 1.25 0 0 1 0-1.767L3.518 2.34c.235-.234.549-.364.883-.364s.648.13.884.365l1.116 1.114a10.28 10.28 0 0 1 1.932-.665V1.25A1.25 1.25 0 0 1 9.583 0h.833a1.25 1.25 0 0 1 1.25 1.25v1.541c.664.157 1.312.38 1.931.666l1.117-1.116a1.24 1.24 0 0 1 .884-.365c.334 0 .648.13.884.365l1.181 1.178a1.25 1.25 0 0 1 0 1.768l-1.116 1.115a10.24 10.24 0 0 1 .666 1.932h1.537A1.25 1.25 0 0 1 20 9.583v.833a1.25 1.25 0 0 1-1.25 1.25h-1.537c-.157.665-.382 1.315-.668 1.936l1.116 1.117a1.25 1.25 0 0 1 0 1.767l-1.178 1.178a1.24 1.24 0 0 1-.884.366 1.24 1.24 0 0 1-.884-.366l-1.117-1.116a10.29 10.29 0 0 1-1.931.666v1.535a1.25 1.25 0 0 1-1.25 1.25h-.832zm-3.268-4.375a.42.42 0 0 1 .185.043 9.47 9.47 0 0 0 2.332.798c.194.038.335.211.335.408v1.875c0 .23.187.417.417.417h.833c.23 0 .417-.187.417-.417v-1.871c0-.198.141-.37.334-.408a9.43 9.43 0 0 0 2.33-.798c.057-.028.122-.043.185-.043a.41.41 0 0 1 .294.122l1.327 1.324c.078.078.183.122.295.122s.216-.043.295-.122l1.178-1.178c.078-.078.122-.183.122-.294s-.043-.216-.122-.295l-1.324-1.325c-.127-.127-.158-.32-.078-.48.368-.739.637-1.525.801-2.335.039-.194.211-.334.408-.334h1.872c.23 0 .417-.187.417-.417v-.833c0-.23-.187-.417-.417-.417h-1.872c-.198 0-.37-.141-.408-.334a9.4 9.4 0 0 0-.798-2.332c-.08-.16-.048-.353.078-.48l1.324-1.323c.163-.162.163-.427 0-.589L15.893 2.93c-.079-.078-.183-.122-.295-.122a.41.41 0 0 0-.294.122l-1.325 1.324c-.078.078-.183.122-.294.122a.43.43 0 0 1-.186-.043 9.43 9.43 0 0 0-2.33-.798.42.42 0 0 1-.335-.408V1.25c0-.23-.187-.417-.417-.417h-.833c-.23 0-.417.187-.417.417v1.874a.42.42 0 0 1-.334.408 9.38 9.38 0 0 0-2.331.798.43.43 0 0 1-.186.043.41.41 0 0 1-.294-.122L4.697 2.93c-.079-.078-.183-.122-.295-.122a.41.41 0 0 0-.295.122L2.928 4.109c-.163.163-.163.427 0 .589l1.325 1.324c.127.127.158.32.078.48a9.45 9.45 0 0 0-.798 2.331.42.42 0 0 1-.408.334H1.25c-.23 0-.417.187-.417.417v.833c0 .23.187.417.417.417h1.872a.42.42 0 0 1 .408.334c.163.808.432 1.593.798 2.332.08.16.048.353-.078.48l-1.325 1.325c-.162.162-.162.427 0 .589l1.182 1.178c.078.078.183.122.295.122s.216-.043.295-.122l1.324-1.325a.41.41 0 0 1 .294-.123zM10 14.168c-2.298 0-4.167-1.869-4.167-4.167S7.703 5.834 10 5.834s4.167 1.869 4.167 4.167-1.869 4.167-4.167 4.167zm0-7.5a3.34 3.34 0 0 0-3.333 3.333A3.34 3.34 0 0 0 10 13.334a3.34 3.34 0 0 0 3.333-3.333A3.34 3.34 0 0 0 10 6.668z"/></svg>