<svg xmlns="http://www.w3.org/2000/svg" width="6" height="12" fill="#3e3f42"  xmlns:v="https://vecta.io/nano"><path d="M3 7.249a1.25 1.25 0 1 1 0-2.5 1.25 1.25 0 1 1 0 2.5zm0-2a.75.75 0 1 0 0 1.5.75.75 0 1 0 0-1.5zM.25 3.292a.25.25 0 0 1-.177-.073A.25.25 0 0 1 0 3.042a.25.25 0 0 1 .073-.177L2.47.469c.142-.142.33-.22.531-.22s.389.078.53.219l2.397 2.396a.25.25 0 0 1-.177.427.25.25 0 0 1-.177-.073L3.177.823A.25.25 0 0 0 3 .75c-.067 0-.13.026-.176.073L.427 3.219a.25.25 0 0 1-.177.073zM3 11.749c-.2 0-.389-.078-.53-.22L.073 9.133A.25.25 0 0 1 0 8.956a.25.25 0 0 1 .073-.177.25.25 0 0 1 .177-.073.25.25 0 0 1 .177.073l2.397 2.397c.047.047.11.073.176.073a.25.25 0 0 0 .177-.073l2.397-2.397A.25.25 0 0 1 6 8.956a.25.25 0 0 1-.073.177L3.531 11.53c-.142.141-.33.219-.53.219z"/></svg>