<svg xmlns="http://www.w3.org/2000/svg" width="20" height="20" fill="currentColor"  xmlns:v="https://vecta.io/nano"><g clip-path="url(#A)" fill="#currentColor"><path d="M.42 20c-.23 0-.417-.187-.417-.417s.187-.417.417-.417h.413v-3.333c0-.46.374-.833.833-.833h1.667c.459 0 .833.373.833.833v3.333h1.667v-7.5c0-.46.374-.833.833-.833h1.667c.459 0 .833.373.833.833v7.5h1.667v-5.833c0-.46.373-.833.833-.833h1.667c.46 0 .833.373.833.833v5.833h1.667V7.5c0-.459.373-.833.833-.833h1.667c.46 0 .833.374.833.833v11.667h.42c.23 0 .417.187.417.417s-.187.417-.417.417H.42zm17.913-.833V7.5h-1.667v11.667h1.667zm-5 0v-5.833h-1.667v5.833h1.667zm-5 0v-7.5H6.667v7.5h1.667zm-5 0v-3.333H1.667v3.333h1.667zm-.829-7.917A1.67 1.67 0 0 1 .837 9.583a1.67 1.67 0 0 1 1.667-1.667 1.66 1.66 0 0 1 .972.315l2.523-2.103a1.64 1.64 0 0 1-.162-.712A1.67 1.67 0 0 1 7.504 3.75 1.67 1.67 0 0 1 9.17 5.417l-.004.115 1.94.647a1.66 1.66 0 0 1 1.398-.762 1.65 1.65 0 0 1 .732.172l2.758-3.217a1.67 1.67 0 0 1-.158-.704A1.67 1.67 0 0 1 17.504 0a1.67 1.67 0 0 1 1.667 1.667 1.67 1.67 0 0 1-1.667 1.667 1.66 1.66 0 0 1-.969-.312l-2.666 3.11a1.66 1.66 0 0 1 .302.953 1.67 1.67 0 0 1-1.667 1.667 1.67 1.67 0 0 1-1.667-1.667l.004-.116-1.94-.647c-.306.475-.827.763-1.397.763a1.66 1.66 0 0 1-.972-.315L4.009 8.872c.106.223.162.465.162.712a1.67 1.67 0 0 1-1.667 1.667zm0-2.5c-.459 0-.833.374-.833.833s.374.833.833.833.833-.374.833-.833-.374-.833-.833-.833zm10-2.5c-.46 0-.833.374-.833.833s.373.833.833.833.833-.374.833-.833-.374-.833-.833-.833zm-5-1.667c-.459 0-.833.374-.833.833s.374.833.833.833.833-.374.833-.833-.374-.833-.833-.833zm10-3.75c-.46 0-.833.374-.833.833s.373.833.833.833.833-.374.833-.833-.374-.833-.833-.833z" fill-opacity=".5"/></g><defs><clipPath id="A"><path fill="#fff" d="M0 0h20v20H0z"/></clipPath></defs></svg>