<svg xmlns="http://www.w3.org/2000/svg" width="24" height="23" fill="#fb4b56"  xmlns:v="https://vecta.io/nano"><path d="M22.089 22.983c-.042 0-.085-.002-.127-.008H2.03c-.041.005-.082.007-.123.007-.528 0-.973-.377-1.057-.897-.043-.265.014-.534.161-.758l10.091-20.18c.291-.583.722-.645.894-.645.214 0 .614.084.894.645l10.091 20.181c.311.473.192 1.122-.269 1.454-.183.131-.398.201-.623.201zM1.891 21.805c-.012.023-.025.046-.041.067s-.016.034-.013.052c.006.036.038.058.066.058a.58.58 0 0 1 .093-.008h20c.027 0 .054.002.081.007.028 0 .039-.004.05-.012.031-.022.038-.065.016-.096-.015-.02-.029-.043-.041-.067L11.996 1.594 1.891 21.805zm10.105-5.326a.5.5 0 0 1-.5-.5v-7a.5.5 0 1 1 1 0v7a.5.5 0 0 1-.5.5zm.014 2.5c-.412-.001-.747-.319-.763-.725-.004-.207.069-.398.207-.543s.324-.228.524-.231c.424.008.753.327.768.726.004.207-.069.398-.207.543a.74.74 0 0 1-.524.231z"/></svg>